# xmcd CD database file
#
# Track frame offsets:
#	150
#	11592
#	16893
#	26942
#	40239
#	49973
#	60711
#	80170
#	95833
#	103376
#	109798
#	124563
#	129359
#	134018
#	140110
#	146064
#	157553
#	166357
#	176334
#	187981
#	198897
#	212426
#	230955
#	253098
#
# Disc length: 3668 seconds
#
# Revision: 1
# Processed by: cddbd v1.5.2PL0 Copyright (c) Steve Scherf et al.
# Submitted via: CDex 1.51
#
DISCID=5f0e5218
DTITLE=Marc Antoine Charpentier - Messe à 8 voix, 8 violons and flûtes (extraits) - Psalmus Davidis
DYEAR=1900
DGENRE=Musique Sacrée
TTITLE0=Messe à 8 voix, 8 violons and flûtes - Christe Eleisson [G. Vashegyi, Orfeo Orch]
TTITLE1=Messe à 8 voix, 8 violons and flûtes - Gloria in excelsis Deo
TTITLE2=Messe à 8 voix, 8 violons and flûtes - Et in terra pax
TTITLE3=Messe à 8 voix, 8 violons and flûtes - Domine Deus
TTITLE4=Messe à 8 voix, 8 violons and flûtes - Qui tollis peccata mundi
TTITLE5=Messe à 8 voix, 8 violons and flûtes - Quoniam tu solus sanctus
TTITLE6=Messe à 8 voix, 8 violons and flûtes - Credo - patrem omnipotentem
TTITLE7=Messe à 8 voix, 8 violons and flûtes - Crucifixus
TTITLE8=Messe à 8 voix, 8 violons and flûtes - Et resurrexit
TTITLE9=Messe à 8 voix, 8 violons and flûtes - Cujus regni non erit finis
TTITLE10=Messe à 8 voix, 8 violons and flûtes - Et in Spiritym Sanctum
TTITLE11=Messe à 8 voix, 8 violons and flûtes - Premier Sanctus
TTITLE12=Messe à 8 voix, 8 violons and flûtes - Second Sanctus
TTITLE13=Messe à 8 voix, 8 violons and flûtes - Troisième Sanctus
TTITLE14=Messe à 8 voix, 8 violons and flûtes - Pleni sunt coeli
TTITLE15=Messe à 8 voix, 8 violons and flûtes - Elevation - O salutaris Hostia
TTITLE16=Messe à 8 voix, 8 violons and flûtes - Benrdictus
TTITLE17=Messe à 8 voix, 8 violons and flûtes - Premier Agnus Dei
TTITLE18=Messe à 8 voix, 8 violons and flûtes - Second Agnus Dei
TTITLE19=Messe à 8 voix, 8 violons and flûtes - Troisième Agnus Dei
TTITLE20=Messe à 8 voix, 8 violons and flûtes - Domine Salvum fac regem
TTITLE21=Psalmus Davidis - Domine Deus salutis maeae  [György Vashegyi, Orfeo Orchestra]
TTITLE22=Psalmus Davidis - Posuerunt me
TTITLE23=Psalmus Davidis - Et ego ad te, Domine, clamavi
EXTD=
EXTT0=
EXTT1=
EXTT2=
EXTT3=
EXTT4=
EXTT5=
EXTT6=
EXTT7=
EXTT8=
EXTT9=
EXTT10=
EXTT11=
EXTT12=
EXTT13=
EXTT14=
EXTT15=
EXTT16=
EXTT17=
EXTT18=
EXTT19=
EXTT20=
EXTT21=
EXTT22=
EXTT23=
PLAYORDER=
